<?xml version="1.0" encoding="utf-8"?>
<!-- Generator: Adobe Illustrator 19.0.0, SVG Export Plug-In . SVG Version: 6.00 Build 0)  -->
<svg version="1.1" id="Capa_1" xmlns="http://www.w3.org/2000/svg" xmlns:xlink="http://www.w3.org/1999/xlink" x="0px" y="0px"
	 viewBox="0 0 2122 2122" style="enable-background:new 0 0 2122 2122;" xml:space="preserve">
<style type="text/css">
	.st0{fill:#BAC3E4;}
	.st1{fill:#CAD2EC;}
	.st2{clip-path:url(#SVGID_2_);}
	.st3{fill:#93665D;}
	.st4{fill:#EEEAE5;}
	.st5{fill:#FBD3C7;}
	.st6{fill:#FDEDE8;}
	.st7{fill:#83C3EC;}
	.st8{fill:#EEEEF4;}
	.st9{fill:#FFFFFF;}
	.st10{fill:#2C3846;}
	.st11{fill:#649ED6;}
	.st12{fill:#F1AA91;}
	.st13{fill:#8B4E3C;}
	.st14{fill:none;stroke:#FFFFFF;stroke-width:5.3937;stroke-linecap:round;stroke-linejoin:round;stroke-miterlimit:10;}
	.st15{fill:none;stroke:#FFFFFF;stroke-width:3.3127;stroke-linecap:round;stroke-linejoin:round;stroke-miterlimit:10;}
	.st16{fill:none;stroke:#FFFFFF;stroke-width:4.7736;stroke-linecap:round;stroke-linejoin:round;stroke-miterlimit:10;}
	.st17{fill:none;stroke:#FFFFFF;stroke-width:4.0656;stroke-linecap:round;stroke-linejoin:round;stroke-miterlimit:10;}
	.st18{fill:none;stroke:#FFFFFF;stroke-width:3.2564;stroke-linecap:round;stroke-linejoin:round;stroke-miterlimit:10;}
	.st19{fill:none;stroke:#FFFFFF;stroke-width:3.3856;stroke-linecap:round;stroke-linejoin:round;stroke-miterlimit:10;}
	.st20{fill:#E4E6E9;}
</style>
<path class="st0" d="M330.3,1658c-26.8-46.9-48.2-104.9-31.3-157.3c19.1-59.4,80.5-90.1,103.2-147.8c22.3-56.9,0.8-124.2-32.1-174.2
	c-32.9-50-76.5-90.5-106.8-142.5c-62.8-107.8-56.7-258.1,8.2-364.4c64.9-106.3,182.3-166.2,296.8-160.7
	c46.4,2.3,92.7,14.3,138.8,8.1c80.2-10.8,145.6-73.8,212.6-124.5c67.1-50.7,153.1-91.6,226.6-54c51.3,26.3,84.5,85.7,135.8,112.2
	c53.1,27.4,115.4,14.4,170.9-5.8c55.5-20.3,110.6-47.7,169-48.1c52.8-0.4,105.4,22.5,144.2,62.7c18.5,19.2,34.4,43.3,38.9,71.2
	c9.2,57.3-29.9,108.1-61.1,154.5c-26.9,40.1-49.7,83.7-67.8,129.6c-3.5,9-7,18.8-5.1,28.4c1.9,10.1,9.2,17.7,16.7,23.7
	c77.7,63.1,195.7,27.2,271.9,92.4c38,32.5,58.6,86,63.2,139.4c4.5,53.4-5.6,107.1-19.6,158.4c-46.4,168.9-149.6,331.3-300.7,380.1
	c-37.8,12.2-77.7,17.1-114.1,33.7c-45.3,20.7-82.6,58.4-124.2,87.2c-88.7,61.4-199.4,81.2-300.7,54c-46.4-12.5-94-34.4-140.2-21
	c-41,11.9-74.1,50.5-116.2,55.9c-68.6,8.8-122.3-72.2-190.9-80.8c-23.7-3-47.5,3-70.7,8.9c-51.1,13.1-126.6,50.4-179.5,33.6
	C409.5,1793.2,360,1710.1,330.3,1658z"/>
<path class="st1" d="M399,466.3c-30.9-3-69.8,25.6-65.7,65.5c1.7,17,12.8,33.3,28.9,39.1c17.8,6.5,38.4-0.6,52.2-13.5
	c14.1-13.2,22.6-32.9,20.2-52.1C431.4,479.9,416.5,468,399,466.3z"/>
<path class="st1" d="M599.1,558.3c22.9-8.2,44.2-23,56.2-44.2c11.9-21.2,12.8-49.3-1.3-69.2c-30.6-42.9-119.2-38.7-142.7,9.6
	C482.4,514.1,536,581,599.1,558.3z"/>
<path class="st1" d="M477.1,350.9c-29.4-8.2-57.5,24.9-22.2,49.6c6.4,4.5,15.4,4.7,22.6,1.4c7.2-3.2,12.7-9.6,15.7-16.9
	c1.3-3.1,2.2-6.4,2.4-9.8C496,364.3,487.7,353.8,477.1,350.9z"/>
<path class="st1" d="M1734.4,811c-24.9-18.5-72.9-14.2-90.1,22.2c-7.3,15.5-6.2,35.1,4.5,48.4c11.9,14.7,33.2,19.3,51.7,15.4
	c18.9-4,36.3-16.5,44.2-34.2C1755.2,839.3,1748.5,821.5,1734.4,811z"/>
<path class="st1" d="M310,1675.4c-24.9-18.5-72.9-14.2-90.1,22.2c-7.3,15.5-6.2,35.1,4.5,48.4c11.9,14.7,33.2,19.3,51.7,15.4
	c18.9-4,36.3-16.5,44.2-34.2C330.8,1703.7,324.1,1685.9,310,1675.4z"/>
<path class="st1" d="M1898.5,810.9c-21-22.2-62.1-8.3-44.6,31c3.2,7.2,10.8,11.9,18.6,12.9c7.8,0.9,15.8-1.7,22.2-6.3
	c2.7-2,5.2-4.4,7.1-7.2C1907.8,832.1,1906.1,818.9,1898.5,810.9z"/>
<path class="st1" d="M1431.8,309.4c-21-22.2-62.1-8.3-44.6,31c3.2,7.2,10.8,11.9,18.6,12.9c7.8,0.9,15.8-1.7,22.2-6.3
	c2.7-2,5.2-4.4,7.1-7.2C1441,330.6,1439.3,317.4,1431.8,309.4z"/>
<path class="st1" d="M1718.7,1733.5c-21-22.2-62.1-8.3-44.6,31c3.2,7.2,10.8,11.9,18.6,12.9c7.8,0.9,15.8-1.7,22.2-6.3
	c2.7-2,5.2-4.4,7.1-7.2C1727.9,1754.8,1726.2,1741.5,1718.7,1733.5z"/>
<path class="st1" d="M329.6,1574.8c-21-22.2-62.1-8.3-44.6,31c3.2,7.2,10.8,11.9,18.6,12.9c7.8,0.9,15.8-1.7,22.2-6.3
	c2.7-2,5.2-4.4,7.1-7.2C338.8,1596,337.1,1582.8,329.6,1574.8z"/>
<path class="st1" d="M1771.4,734.4c-21-22.2-62.1-8.3-44.6,31c3.2,7.2,10.8,11.9,18.6,12.9c7.8,0.9,15.8-1.7,22.2-6.3
	c2.7-2,5.2-4.4,7.1-7.2C1780.7,755.6,1779,742.4,1771.4,734.4z"/>
<g>
	<defs>
		<path id="SVGID_1_" d="M330.3,1658c-26.8-46.9-48.2-104.9-31.3-157.3c19.1-59.4,80.5-90.1,103.2-147.8
			c22.3-56.9,0.8-124.2-32.1-174.2c-32.9-50-76.5-90.5-106.8-142.5c-62.8-107.8-56.7-258.1,8.2-364.4
			c64.9-106.3,182.3-166.2,296.8-160.7c46.4,2.3,92.7,14.3,138.8,8.1c80.2-10.8,145.6-73.8,212.6-124.5
			c67.1-50.7,153.1-91.6,226.6-54c51.3,26.3,84.5,85.7,135.8,112.2c53.1,27.4,115.4,14.4,170.9-5.8c55.5-20.3,110.6-47.7,169-48.1
			c52.8-0.4,105.4,22.5,144.2,62.7c18.5,19.2,34.4,43.3,38.9,71.2c9.2,57.3-29.9,108.1-61.1,154.5c-26.9,40.1-49.7,83.7-67.8,129.6
			c-3.5,9-7,18.8-5.1,28.4c1.9,10.1,9.2,17.7,16.7,23.7c77.7,63.1,195.7,27.2,271.9,92.4c38,32.5,58.6,86,63.2,139.4
			c4.5,53.4-5.6,107.1-19.6,158.4c-46.4,168.9-149.6,331.3-300.7,380.1c-37.8,12.2-77.7,17.1-114.1,33.7
			c-45.3,20.7-82.6,58.4-124.2,87.2c-88.7,61.4-199.4,81.2-300.7,54c-46.4-12.5-94-34.4-140.2-21c-41,11.9-74.1,50.5-116.2,55.9
			c-68.6,8.8-122.3-72.2-190.9-80.8c-23.7-3-47.5,3-70.7,8.9c-51.1,13.1-126.6,50.4-179.5,33.6C409.5,1793.2,360,1710.1,330.3,1658z
			"/>
	</defs>
	<clipPath id="SVGID_2_">
		<use xlink:href="#SVGID_1_"  style="overflow:visible;"/>
	</clipPath>
	<g class="st2">
		<g>
			<path class="st3" d="M973.5,402.1c6.8-22.3,27.8-37.4,48.8-47.4c14.4-6.8,29.7-12.1,45.5-13.6c14-1.3,28.1,0.2,42-1.5
				c13.3-1.6,26-6.2,38.9-9.6c17.4-4.6,35.3-7.5,53.3-7.5h19.4l9.5,3c11.6,3.7,25.8,24.9,33,34.3c10.1,13.1,18.9,27.3,26,42.2
				c14.3,30.1,18.9,61.1,23.6,93.5c5.7,39.5,5.5,80.5,9.9,120.4c4.5,41.2,10.4,82.3,17.8,123.1c0.6,3.3,1.2,6.5,1.8,9.8
				c0.9,4.9,1.7,10.5-1.5,14.3c-1.6,1.9-3.9,3-6.2,3.8c-14.2,5.3-25.1,0.2-38.8-0.9c-18-1.5-37.1,0.6-55.1,0.9
				c-35.9,0.6-71.8,1.1-107.7,1.7c-20.4,0.3-40.9,0.6-61.2-1.1c-31.4-2.7-62.6-10.3-94-7.4C939.9,645,938.2,518.1,973.5,402.1z"/>
		</g>
		<g>
			<path class="st4" d="M1262.2,2015.6c-10.9-95-28.8-188.8-65.3-276.7c-2.5-5.9-5.4-12.3-11.2-15c-9.4-4.6-20.2,2.9-27.3,10.5
				c-29.4,31.8-43.3,74.7-54.4,116.5c-6,22.6-12.9,86.8-19.8,164.6H1262.2z"/>
		</g>
		<g>
			<path class="st5" d="M1112.8,718.9c13.8-20,13.9-101.6,8.8-105.5l80.2-4.5c3,45.1-16.3,127.7,95.2,126.7c2,0,3.6,1.7,4.9,3.1
				c3.4,3.8,1.8,9.6-0.1,14.3c-15.3,36.8-61.7,95.6-98.9,109.9c-37.2,14.3-70.1,8.2-105.9-9.4c-23.1-11.3-37.3-53-55.3-71.2
				c-12.2-12.3-24.6-27-24.7-44.3C1041.2,734.4,1099,738.9,1112.8,718.9z"/>
		</g>
		<g>
			<g>
				<path class="st6" d="M1121.6,613.3l74.4-4.2c-0.2,10.4-0.6,20.7-1.1,31.1c0,0.5,0,0.9,0.1,1.4c-0.2,0.3-0.5,0.6-0.7,0.9
					c-7,10.8-20.3,19.1-32.7,24.2c-12.4,5.2-25.6,8.6-38.7,11.6C1125.9,649.1,1124.8,615.8,1121.6,613.3z"/>
			</g>
		</g>
		<g>
			<path class="st7" d="M1130.5,2015.6c10.6-75.8,20.9-145.2,26.6-172.2c13.4-63.8,27.1-127.5,41.3-190.8
				c10.4-46.5,21.1-93.1,32.2-138.1c6.4-25.9-10.1-51.8-36.2-57.1L848,1386.9c-10.4,69.7-18.4,136.1-26,202.8
				c-7.5,66.5-14.5,132.7-21.2,198.8c-6.6,66.1-12.9,132.1-19,198.3c-0.9,9.6-1.7,19.3-2.5,28.9H1130.5z"/>
		</g>
		<g>
			<path class="st7" d="M1524.1,2015.6c-11.3-210.9-16.9-422.4-26.5-633.2l-400.5,41.5l72.9,591.8H1524.1z"/>
		</g>
		<g>
			<g>
				<path class="st8" d="M812.9,1227.8c7.8-72.8,20.4-144.8,39.4-215.7c16.3-60.5,35.3-126.1,66-181c24.2-43.2,97.8-58.5,139.4-81.7
					c1.6-0.9,3.3,3,4.5,1.9c11.1-1.1,23.7-2.9,28.2,2.5c9.5,11.4,51,58.4,67,69.1c1.7,1.1,3.4,2.3,5.4,2.6
					c4.8,0.8,51.5-40.6,65.6-55.4c5.6-5.8,11.9-13.2,16-20.4c3.1-5.4,20.2,1.5,26.3,1.5c23,0.1,38.8-0.4,59.8,10.2
					c46.1,23.3,101.9,63.8,122.3,111.6c63.5,148,63.3,274.8,61,413.7c-0.2,14.2-12.8,307-18,308.6
					c-186.5,59.6-491.1,53.5-705.6-28.3c1,0,16.7-272.5,18.6-295.3C810,1257.1,811.4,1242.4,812.9,1227.8z"/>
			</g>
		</g>
		<g>
			<path class="st7" d="M812.9,1199.7c7.8-71.9,20.4-143.2,39.4-213.2c16.3-59.8,35.3-124.7,66-178.9
				c24.2-42.7,97.8-57.8,139.4-80.7c1.6-0.9,3.3,3,4.5,1.9c11.1-1.1,23.7-2.9,28.2,2.5c9.5,11.3,51,57.7,67,68.3
				c1.7,1.1,3.4,2.2,5.4,2.5c4.8,0.8,51.5-40.1,65.6-54.7c5.6-5.8,11.9-13,16-20.2c3.1-5.4,20.2,1.5,26.3,1.5
				c23,0.1,38.8-0.4,59.8,10c46.1,23,101.9,63.1,122.3,110.3c63.5,146.3,63.3,271.7,61,409c-0.2,14-12.8,303.5-18,305.1
				c-186.5,58.9-491.1,52.8-705.6-28c1,0,16.7-269.3,18.6-291.9C810,1228.6,811.4,1214.1,812.9,1199.7z"/>
		</g>
		<g>
			<path class="st9" d="M1218.2,1489.3c0.1,19.4,0.3,38.9,0.4,58.3c0,155.2-2.9,311.7-2.4,467.9h346.2
				c-9-101.9-17.1-185.3-33.2-280.5c-14.7-86.9-12.1-151.6-10.1-236.5c1.9-79.1,10.7-183.1,5.5-261.9c-2.2-34-4.5-68.1-6.7-102.1
				c-2.2-33.5-2.5-68.8-6.7-102.1c-8.3-64.8-14.1-122.9-31.9-181.5c-15-49.4-51.6-86.5-98.4-108.5c-33.7-15.8-79.6-21.6-114.5-18.8
				c-8,0.6-10.4,22.8-14,38.9c-4.2,18.4-8.6,43.3-14.2,61.4c-9.1,29.4-22.3,53-23.4,84c-2.5,67.8,3.3,133.6,6.1,202.1
				C1226.2,1244,1217.3,1355.4,1218.2,1489.3z"/>
		</g>
		<g>
			<path class="st9" d="M839.4,2015.6c46.3-143.3,82.1-290,112.8-437.3c21.5-102.9,40.6-206.3,59.4-309.7
				c18.3-100.9,16.1-206,31.1-308c11.7-79.7,37.1-155.7,43.8-235.5c-61.3-9-147.6,28.8-180.8,80.2c-23.4,36.3-35.3,78.6-48.1,119.4
				c-19.2,61.6-32.8,124.8-43.1,188.5c-20.2,124.6-28.2,250.8-44,376c-10.1,79.8-14.2,155.9-20.2,230.4c-4.7,57.8-0.9,114.4-6,171.8
				c-3.6,41.2-6.5,82.7-7.8,124.3H839.4z"/>
		</g>
		<g>
			<path class="st4" d="M987.1,1350.2c-2.2,0-4-1.6-4.2-3.8c-12.2-117.3-39.6-278.2-51.6-338.2c-0.3-1.6,0.3-3.2,1.5-4.2
				c6.2-4.9,20.5-14.3,35.7-24.3c15.2-10,32-21.1,41.6-28.2c-6.8-2.9-17.4-7.3-28.3-11.8c-18.7-7.7-40-16.5-48.2-20.5
				c-2.1-1-3-3.5-2-5.6c32.3-68.8,94.7-137.4,141.3-182.8c1.7-1.6,4.4-1.6,6,0.1c1.6,1.7,1.6,4.4-0.1,6
				c-45.2,44.1-105.4,110.1-137.7,176.5c9.7,4.4,27.7,11.8,43.9,18.5c16.1,6.6,30,12.4,35,14.8c1.3,0.6,2.2,1.8,2.4,3.2
				c0.2,1.4-0.3,2.8-1.4,3.8c-7.6,6.7-28.1,20.2-47.8,33.2c-13.5,8.9-26.3,17.3-33,22.3c12.3,62.1,39.2,220.5,51.2,336.4
				c0.2,2.3-1.5,4.4-3.8,4.7C987.3,1350.2,987.2,1350.2,987.1,1350.2z"/>
		</g>
		<g>
			<path class="st4" d="M1218.3,1325c-0.2,0-0.4,0-0.7-0.1c-2.3-0.4-3.9-2.5-3.6-4.9c12-76.9,79.3-257.3,106.6-311.9
				c-7.7-6.8-31-20.4-50.1-31.5c-15.7-9.2-29.3-17.1-35-21.5c-1-0.8-1.7-2.1-1.6-3.4c0-1.3,0.6-2.6,1.7-3.4
				c3.5-2.6,16.4-7.6,39-16.2c17.3-6.6,38.3-14.5,46.2-18.7c-7-21.9-13.3-43.3-19.5-64c-12.9-43.5-25.1-84.5-40.2-120.1
				c-0.9-2.2,0.1-4.7,2.2-5.6c2.2-0.9,4.7,0.1,5.6,2.3c15.3,36,27.6,77.3,40.6,121c6.4,21.7,13.1,44.1,20.5,67
				c0.6,1.7,0,3.6-1.5,4.7c-5.2,4-23.5,11.1-50.8,21.5c-10.9,4.1-23.7,9-31.1,12.2c6.8,4.4,17.3,10.5,28.3,16.9
				c28.5,16.6,49,28.8,54.3,35.4c1.1,1.3,1.2,3.1,0.5,4.6c-26.3,50.9-95.5,237.3-107.2,312.1C1222.2,1323.5,1220.4,1325,1218.3,1325
				z"/>
		</g>
		<g>
			<path class="st5" d="M1289.5,464.3c4.3-2.4,9.8,0,12.7,4.4c2.9,4.4,3.7,10.2,3.6,15.8c-0.1,11.5-3.6,23-9.7,32.2
				c-3,4.6-6.8,8.7-11.6,10.5c-0.3,0.1-0.7,0.2-0.9,0c-0.2-0.2-0.2-0.5-0.2-0.8c0.3-13.7,0.6-27.3,0.9-41L1289.5,464.3z"/>
		</g>
		<g>
			<path class="st5" d="M970.9,471.9c-3.1,102.2,41,189.9,154.6,189.9c116.1,0,162.7-78.1,165.7-180.3
				c3.1-102.2-66.2-187.2-154.6-189.9C1048.1,289,973.9,369.7,970.9,471.9z"/>
		</g>
		<g>
			<path class="st3" d="M1179.2,456.8c20.4,9.4,40.4,20,58.1,32.9c24.9,18.2,29.5,54.6,39.3,81.9c4-8.4,7.8-16.9,12-25.1
				c3.1-6.1,4.8-13.7,8.4-19.4c5.1-8.1,8.7-17.2,10.5-26.7c4.8-26.4-0.7-54.1-9.4-78.8c-13.8-39.5-38.5-84.6-73.5-109.5
				c-45.2-32.2-103.5-34.5-154.4-16.3c-6.6,2.3-12.9,5.1-19.1,8.3c-55.9,29.1-90,92.8-79.5,155.7c25.2-21.8,59.9-31.6,82.1-56.4
				c26.5,17.7,60,25.5,89.4,37.7C1154.9,446.1,1167.1,451.2,1179.2,456.8z"/>
		</g>
		<g>
			<g>
				<path class="st10" d="M985.5,1091.8c-0.9,6.9,2.7,13.4,8,14.6c5.3,1.1,10.2-3.6,11.1-10.5c0.9-6.9-2.7-13.4-8-14.6
					S986.4,1084.8,985.5,1091.8z"/>
			</g>
			<g>
				<path class="st10" d="M1047,1091.8c-0.9,6.9,2.7,13.4,8,14.6c5.3,1.1,10.2-3.6,11.1-10.5c0.9-6.9-2.7-13.4-8-14.6
					C1052.8,1080.1,1047.8,1084.8,1047,1091.8z"/>
			</g>
			<g>
				<path class="st10" d="M1311.8,1018.7c-0.1,0-0.2,0-0.3,0c-1.6-0.1-2.7-1.5-2.6-3.1c4.9-52.7,2.4-110.5-7.5-172
					c-4.9-30.1-10.5-53.7-17.6-74.3c-4.8-13.7-11.3-32.5-24-42.5c-9.6-7.6-17.3-8.8-30.1-10.2c-1.6-0.2-2.7-1.6-2.5-3.1
					c0.2-1.6,1.6-2.7,3.1-2.5c12,1.3,21.6,2.4,32.9,11.4c14,11.1,20.8,30.7,25.8,45.1c7.3,20.9,13,44.9,17.9,75.2
					c10,61.9,12.5,120.2,7.5,173.4C1314.4,1017.6,1313.2,1018.7,1311.8,1018.7z"/>
			</g>
			<g>
				<path class="st10" d="M1025.8,920.9c-1.4,0-2.6-1-2.8-2.4c-5.1-30.2-5.8-61.5-2-93.1c4.1-34,11.8-59.1,24.3-79
					c15.8-25.1,36.1-30.8,61.9-31.5c1.7-0.1,2.9,1.2,2.9,2.8c0,1.6-1.2,2.9-2.8,2.9c-24.6,0.7-42.7,5.8-57.2,28.8
					c-12,19.1-19.4,43.5-23.4,76.6c-3.7,31-3,61.8,2,91.5c0.3,1.5-0.8,3-2.3,3.3C1026.2,920.9,1026,920.9,1025.8,920.9z"/>
			</g>
			<g>
				<circle class="st10" cx="1310.1" cy="1048.9" r="35.5"/>
			</g>
			<g>
				<circle class="st11" cx="1310.1" cy="1048.9" r="12.4"/>
			</g>
			<g>
				<path class="st10" d="M1073,1099.3c-3.6,0-6.9-0.9-9-1.5c-1.2-0.3-2-1.6-1.6-2.9c0.3-1.2,1.6-2,2.9-1.6
					c8.4,2.3,12.9,1.6,15.7-2.5c1.6-2.3,2.4-5.8,3-8.8c10.3-51.2,1.4-136.7-41.4-157.5c-10.8-5.2-20.9-5.5-30-0.8
					c-21.2,10.9-34.2,46.9-38.9,74.3c-2.8,16.6-3.2,33.3-3.1,46l0,3.3c0,8.8-0.1,35.7,2.9,40.3c2.5,3.8,6.8,3.6,12.6,3l0.9-0.1
					c1.2-0.1,2.4,0.8,2.6,2.1c0.1,1.3-0.8,2.4-2.1,2.6l-0.9,0.1c-5.4,0.6-12.8,1.4-17-5.1c-3.3-5.1-3.7-23.6-3.6-42.9l0-3.3
					c0-12.9,0.3-29.8,3.2-46.8c5.1-29.9,18.6-66,41.3-77.7c10.5-5.4,22-5.1,34.2,0.8c45.5,22.1,54.8,108.6,44,162.6
					c-0.7,3.5-1.6,7.5-3.7,10.5C1081.7,1098,1077.2,1099.3,1073,1099.3z"/>
			</g>
		</g>
		<g>
			<g>
				<path class="st12" d="M1081.3,549.2c-9,0-15.4-3.7-17.5-10.4c-1.1-3.4-0.9-6.6,0.6-9.5c1.6-3.1,4.7-5.5,8.6-6.6
					c4.5-1.3,9.6-0.9,14.4,1.2c1.1,0.5,1.6,1.8,1.1,2.9c-0.5,1.1-1.8,1.6-2.9,1.1c-3.8-1.7-7.8-2-11.3-1c-2.7,0.8-4.8,2.4-5.9,4.4
					c-0.9,1.8-1.1,3.8-0.3,6c2.3,7.3,11.5,7.5,15.3,7.3c1.2-0.1,2.3,0.9,2.4,2.1c0.1,1.2-0.9,2.3-2.1,2.4
					C1082.8,549.2,1082,549.2,1081.3,549.2z"/>
			</g>
			<g>
				<g>
					<ellipse class="st13" cx="1152.5" cy="520.5" rx="10.9" ry="16.8"/>
				</g>
				<g>
					<ellipse class="st9" cx="1156" cy="511.8" rx="3.5" ry="4.3"/>
				</g>
			</g>
			<g>
				<g>
					<ellipse class="st13" cx="1020.3" cy="520.5" rx="10.9" ry="16.8"/>
				</g>
				<g>
					<ellipse class="st9" cx="1023.8" cy="511.8" rx="3.5" ry="4.3"/>
				</g>
			</g>
			<g>
				<path class="st13" d="M1027.8,482.8c-6.3-1.1-13.2-0.7-19.8,0.2c-6.6,1-13.3,2.7-19.1,5.8l0,0c-0.7,0.4-1.5,0.1-1.9-0.6
					c-0.3-0.6-0.1-1.4,0.5-1.8c6.1-3.9,12.9-6,19.8-7.6c6.9-1.4,14-2.4,21.4-1.7c1.6,0.1,2.7,1.5,2.6,3.1c-0.1,1.6-1.5,2.7-3.1,2.6
					C1028,482.8,1027.9,482.8,1027.8,482.8L1027.8,482.8z"/>
			</g>
			<g>
				<path class="st13" d="M1144.4,476.7c7.4-0.5,14.4,0.6,21.3,2.3c6.8,1.8,13.6,4.1,19.6,8.2c0.6,0.4,0.8,1.3,0.4,1.9
					c-0.4,0.6-1.2,0.8-1.8,0.4l0,0c-5.7-3.3-12.4-5.2-19-6.4c-6.6-1.1-13.5-1.7-19.8-0.8l-0.1,0c-1.6,0.2-3-0.9-3.2-2.4
					c-0.2-1.6,0.9-3,2.4-3.2C1144.2,476.7,1144.3,476.7,1144.4,476.7z"/>
			</g>
			<g>
				<path class="st9" d="M1048.1,577.8c-1.7-0.8-4-0.9-5.3,0.4c-1.3,1.4-0.7,3.6,0.1,5.3c5.8,11.1,14.2,19.2,26.4,20.6
					c12.1,1.4,27-5.1,35.4-13.4c2.1-2,6.5-7.6,4.3-10.2c-2.8-3.4-10.1,0.7-12.3,1.5C1080.8,588.2,1063.5,585.5,1048.1,577.8z"/>
			</g>
		</g>
		<g>
			<path class="st5" d="M990.6,1241.9c16.8,0.5,34.9,2.8,47.3,13.4c12.4,10.6,14.7,31.9,0.4,39.9c14.6,13,11.3,38.5-6.2,47.3
				c14.6,16.9,6.8,45.4-14.6,53.5c10.5,3.2,15.4,15.6,11.5,25c-3.8,9.3-14.3,15.3-25.1,17c-10.8,1.7-21.9-0.2-32.6-2.6
				c-14.8-3.4-29.3-7.9-43.4-13.4c-9.9-3.9-21.8-5.7-29.3-13.4c-9.1-9.3-4.5-20.2-2.4-31.2c4.8-25.3,12.4-49.6,21-73.9
				c6.2-17.6,6.3-41,21.8-54.3C951.4,1238.7,975.1,1241.5,990.6,1241.9z"/>
		</g>
		<g>
			<g>
				<path class="st6" d="M1014.8,1404.8c-1.6-7.1-2.2-12.9,0.8-19.7c3.2-7,5.7-13.4,5.2-21.3c-0.3-4.5-1.6-8.8-1.9-13.3
					c-0.2-4.3,2.7-6.7,2.9-11c0.3-5.1-1.4-10.7-1.4-15.9c0-4.9,0.4-9.7,1-14.6c1.2-9.7,3.5-19.5,3.9-29.3
					c0.4-10.7-1.6-20.9,1.8-31.1c3.9,1.7,7.5,3.9,10.8,6.7c12.4,10.6,14.7,31.9,0.4,39.9c14.6,13,11.3,38.5-6.2,47.3
					c14.6,16.9,6.8,45.4-14.6,53.5c10.5,3.2,15.4,15.6,11.5,25c-2.1,5.1-6.2,9.2-11.3,12.2
					C1019.2,1424.1,1016.9,1414.5,1014.8,1404.8z"/>
			</g>
		</g>
		<g>
			<path class="st5" d="M1094.4,1242.6c-16.8-1.4-35-1.1-48.5,8c-13.5,9.1-18.2,30.1-4.9,39.6c-16,11.3-15.5,36.9,0.9,47.7
				c-16.4,15.2-11.9,44.3,8.5,54.8c-10.8,2-17,13.8-14.3,23.5c2.8,9.7,12.5,16.8,23,19.8c10.5,2.9,21.8,2.3,32.7,1.1
				c15.1-1.7,30-4.5,44.6-8.5c10.3-2.8,22.3-3.2,30.6-10c10-8.2,6.8-19.5,5.9-30.7c-1.9-25.7-6.7-50.7-12.6-75.8
				c-4.2-18.2-1.6-41.4-15.6-56.4C1133.6,1243.8,1109.8,1243.9,1094.4,1242.6z"/>
		</g>
		<g>
			<path class="st9" d="M1390.7,750.7c87,41.9,140.4,170.9,170.3,270.8c17.8,59.2,28.9,120.3,35.6,181.7c3.4,31.2,5.7,62.5,7.1,93.8
				c1,20.9,1.9,44.6-6.6,64.2c-7.4,17.1-21.7,24.4-39.5,26.2c-133.5,13.8-267,27.6-400.5,41.5c-17.1-46.5-27.2-140.5-21.4-181.9
				c0.4-3,250.4-31.7,273.2-44.5c2.9-1.7,5.9-3.6,7.6-6.5c2.6-4.4,1.3-9.9,0.4-15c-13-78-32.5-154-52.9-223.6"/>
		</g>
		<g>
			<path class="st9" d="M956.8,1233.8c-21.3-6.9-126-27.2-146.2-44c-9.1-7.6,9.8-98.5,14.1-118.2c8.5-38.8,17.5-86.4,28-124.7
				c8-29.2,13.5-54.1,24.9-82c11.1-27.1,32.5-58.7,51.6-86.6C854,833.6,804.3,909.9,760,988.2c-41.5,73.5-90.4,174.1-81.2,262
				c3.4,32.6,15.7,64.6,37,89.6c22.3,26.2,53.3,43.7,85.8,54.9c15.8,5.5,71.8,21.9,91.7,25.6c15.3,2.8,39.7-70.8,42.1-80.2
				C945.7,1301.1,956.8,1233.8,956.8,1233.8z"/>
		</g>
		<g>
			<path class="st4" d="M943.6,1236.6c-0.4,0-0.8,0-1.1-0.2c-39.3-10.7-78.9-22.4-117.8-34.6l-1.6-0.5c-5.4-1.6-12.8-3.9-16.1-9.3
				c-3.8-6.2-2.8-22.5-2.8-22.7c2-26.8,7-49.5,12.4-73.5c1.3-6,2.7-12.2,4.1-18.6c0.5-2.3,2.8-3.8,5-3.3c2.3,0.5,3.8,2.8,3.3,5
				c-1.4,6.4-2.7,12.6-4.1,18.6c-5.5,24.7-10.3,46.1-12.2,72.2c-0.4,6.1,0.2,15.4,1.5,17.6c1.6,2.7,7.2,4.4,11.3,5.6l1.7,0.5
				c38.7,12.2,78.2,23.8,117.5,34.5c2.3,0.6,3.6,3,3,5.2C947.2,1235.3,945.5,1236.6,943.6,1236.6z"/>
		</g>
		<g>
			<path class="st4" d="M894.2,1427.8c-2.3,0-4.4-0.6-5.9-1c-31.8-9.1-63.6-19.4-94.7-30.7c-2.2-0.8-3.3-3.2-2.5-5.5
				c0.8-2.2,3.2-3.3,5.5-2.5c30.9,11.2,62.5,21.5,94.1,30.5c1.4,0.4,3.4,1,4.5,0.6c0.9-0.3,1.9-1.5,2.8-2.5c6.7-8,12.2-17,16.2-26.7
				c0.9-2.2,3.4-3.2,5.6-2.3c2.2,0.9,3.2,3.4,2.3,5.6c-4.4,10.5-10.3,20.2-17.5,28.9c-1.6,2-3.6,4.1-6.6,5.1
				C896.6,1427.6,895.4,1427.8,894.2,1427.8z"/>
		</g>
		<g>
			<path class="st4" d="M1222.9,1426.5c-2.2,0-4-1.7-4.2-3.9c-0.2-2.3,1.5-4.4,3.8-4.6c90.6-8.3,182.4-17.7,272.8-27.9
				c2.4-0.3,4.4,1.4,4.7,3.8c0.3,2.3-1.4,4.4-3.8,4.7c-90.5,10.1-182.3,19.5-273,27.9C1223.1,1426.5,1223,1426.5,1222.9,1426.5z"/>
		</g>
		<g>
			<path class="st4" d="M1283.6,1230.2c-2.1,0-4-1.6-4.2-3.8c-0.3-2.3,1.4-4.4,3.7-4.7c37.9-4.4,75.8-11.1,112.9-20
				c3.3-0.8,7.1-1.7,10-3.5c9.6-6.1,9.5-21.1,7.8-32.6c-3-19.6-8.2-39-13.3-57.8l-39.9-147.1c-0.6-2.3,0.7-4.6,3-5.2
				c2.2-0.6,4.6,0.7,5.2,3l39.9,147.1c5.2,19,10.5,38.7,13.5,58.8c3,20.1-1,34.3-11.6,41.1c-4.1,2.6-8.8,3.7-12.6,4.6
				c-37.4,9-75.7,15.7-113.9,20.2C1283.9,1230.2,1283.8,1230.2,1283.6,1230.2z"/>
		</g>
	</g>
</g>
<g>
	<circle class="st14" cx="467" cy="827.6" r="126.9"/>
	<polygon class="st9" points="556.7,804.2 490.3,804.2 490.3,737.9 443.6,737.9 443.6,804.2 377.2,804.2 377.2,851 443.6,851 
		443.6,917.3 490.3,917.3 490.3,851 556.7,851 	"/>
</g>
<g>
	<circle class="st15" cx="1736.1" cy="1493.2" r="77.9"/>
	<polygon class="st9" points="1791.2,1478.8 1750.5,1478.8 1750.5,1438.1 1721.8,1438.1 1721.8,1478.8 1681,1478.8 1681,1507.5 
		1721.8,1507.5 1721.8,1548.3 1750.5,1548.3 1750.5,1507.5 1791.2,1507.5 	"/>
</g>
<path class="st9" d="M620,1415.7c-10.3-12.2-27-20.4-44.2-20.2c-16.5,0.2-32.7,8.8-39.7,22c-3.5-6.6-9.3-12-16.3-15.8
	c-7-3.8-15.2-6-23.4-6.1c-17.2-0.2-33.9,8-44.2,20.2c-10.3,12.2-14.7,28-13.6,43.2c0.4,5.3,1.4,10.5,2.9,15.6
	c0.1,0.4,0.2,0.7,0.3,1.1h14.8l13.9-42.6c0.3-0.8,1-1.4,1.9-1.4h0c0.9,0,1.6,0.5,1.9,1.4l23,63.4l23.5-49.1c0.3-0.7,1.1-1.2,1.9-1.2
	c0.8,0,1.5,0.5,1.8,1.3l18.7,46.6l7.2-17.1c0.3-0.8,1.1-1.3,1.9-1.3h47c0.9-2.7,3.4-4.7,6.4-4.7c3.7,0,6.8,3,6.8,6.8
	c0,3.8-3,6.8-6.8,6.8c-3,0-5.6-2-6.4-4.7h-45.6l-8.6,20.4c-0.3,0.8-1.1,1.3-1.9,1.3h0c-0.8,0-1.6-0.5-1.9-1.3l-18.8-46.9l-23.6,49.3
	c-0.3,0.7-1.1,1.2-1.9,1.2H497c-0.8,0-1.6-0.6-1.8-1.4l-22.6-62.4l-12.5,38.3c-0.3,0.9-1.1,1.4-2,1.4h-14.9
	c6.4,17.1,18.4,32.4,31.2,45.4c10.1,10.3,50.9,36.8,61.7,39.1c5.4-1.1,18.7-8.7,31.8-17.2c13.2-8.5,26.2-18,31.3-23.2
	c17.8-18.1,32.6-39.1,34.4-64.9C634.7,1443.6,630.4,1427.9,620,1415.7z"/>
<path class="st9" d="M1906.2,1076.7c-9.4-11.1-24.6-18.5-40.2-18.3c-14.9,0.2-29.7,8-36.1,20c-3.2-6-8.5-10.9-14.8-14.4
	c-6.4-3.5-13.8-5.5-21.3-5.6c-15.6-0.2-30.8,7.2-40.2,18.3c-9.4,11.1-13.3,25.4-12.4,39.3c0.3,4.9,1.2,9.6,2.6,14.1h24.5l10.8-33.1
	c0.2-0.7,0.8-1.1,1.5-1.1h0c0.7,0,1.3,0.4,1.5,1.1l17.8,49.2l18.3-38.2c0.3-0.6,0.9-0.9,1.5-0.9c0.6,0,1.2,0.4,1.4,1l14.5,36.2
	l5.6-13.3c0.3-0.6,0.8-1,1.5-1h47.9c0.7-2.1,2.6-3.7,5-3.7c2.9,0,5.3,2.4,5.3,5.3c0,2.9-2.4,5.3-5.3,5.3c-2.4,0-4.3-1.5-5-3.7h-46.8
	l-6.7,15.9c-0.3,0.6-0.8,1-1.5,1h0c-0.6,0-1.2-0.4-1.5-1l-14.6-36.4l-18.4,38.3c-0.3,0.6-0.8,0.9-1.4,0.9h-0.1
	c-0.7,0-1.2-0.4-1.4-1.1l-17.6-48.5l-9.7,29.8c-0.2,0.7-0.8,1.1-1.5,1.1h-24.6c5.6,16.2,16.9,30.5,28.9,42.8
	c9.2,9.4,46.2,33.4,56.1,35.5c4.9-1,17-7.9,28.9-15.6c11.9-7.7,23.8-16.4,28.4-21.1c16.1-16.5,29.7-35.5,31.3-59
	C1919.5,1102.1,1915.6,1087.7,1906.2,1076.7z"/>
<g>
	<g>
		<line class="st16" x1="1589.3" y1="563.3" x2="1566.8" y2="540"/>
		<path class="st9" d="M1567.6,522.6c4.7,4.9,4,13.5-1.6,18.2c-8.1,6.6-20.3,1.1-19.9-9c0.3-8,8.5-14.1,16.1-12.3
			C1564.4,520,1566.2,521.1,1567.6,522.6z"/>
	</g>
	<g>
		<line class="st16" x1="1641.7" y1="617.3" x2="1664.1" y2="640.6"/>
		<path class="st9" d="M1663.3,658c-4.7-4.9-4-13.5,1.6-18.2c8.1-6.6,20.3-1.1,19.9,9c-0.3,8-8.5,14.1-16.1,12.3
			C1666.5,660.6,1664.7,659.5,1663.3,658z"/>
	</g>
	<g>
		<line class="st16" x1="1642.5" y1="564.1" x2="1665.7" y2="541.6"/>
		<path class="st9" d="M1683.2,542.4c-4.9,4.7-13.5,4-18.2-1.6c-6.6-8.1-1.1-20.3,9-19.9c8,0.3,14.1,8.5,12.3,16.1
			C1685.8,539.2,1684.6,541,1683.2,542.4z"/>
	</g>
	<g>
		<line class="st16" x1="1588.5" y1="616.5" x2="1565.2" y2="639"/>
		<path class="st9" d="M1547.7,638.2c4.9-4.7,13.5-4,18.2,1.6c6.6,8.1,1.1,20.3-9,19.9c-8-0.3-14.1-8.5-12.3-16.1
			C1545.2,641.4,1546.3,639.6,1547.7,638.2z"/>
	</g>
	<g>
		<line class="st17" x1="1623.6" y1="555.1" x2="1629.8" y2="528.2"/>
		<path class="st9" d="M1642.6,520.7c-1.4,5.6-7.8,9.2-13.7,7.3c-8.5-2.7-10.2-14-2.8-18.4c5.8-3.5,14.1-0.4,16.2,5.8
			C1643,517.2,1643,519,1642.6,520.7z"/>
	</g>
	<g>
		<line class="st17" x1="1607.2" y1="625.8" x2="1601" y2="652.7"/>
		<path class="st9" d="M1588.2,660.2c1.4-5.6,7.8-9.2,13.7-7.3c8.5,2.7,10.2,14,2.8,18.4c-5.8,3.5-14.1,0.4-16.2-5.8
			C1587.8,663.7,1587.8,661.9,1588.2,660.2z"/>
	</g>
	<g>
		<line class="st17" x1="1650.8" y1="582.2" x2="1677.6" y2="575.9"/>
		<path class="st9" d="M1690,584.2c-5.7,1.3-11.6-3-12.6-9.1c-1.3-8.8,8.1-15.3,15.3-10.6c5.7,3.7,6.6,12.4,1.9,17.2
			C1693.3,583,1691.7,583.8,1690,584.2z"/>
	</g>
	<g>
		<line class="st17" x1="1580" y1="598.7" x2="1553.2" y2="605"/>
		<path class="st9" d="M1540.8,596.7c5.7-1.3,11.6,3,12.6,9.1c1.3,8.8-8.1,15.3-15.3,10.6c-5.7-3.7-6.6-12.4-1.9-17.2
			C1537.5,597.9,1539.1,597.1,1540.8,596.7z"/>
	</g>
	<g>
		<line class="st18" x1="1653.1" y1="602.2" x2="1674.4" y2="608"/>
		<path class="st9" d="M1680.1,618.5c-4.5-1.3-7.1-6.5-5.4-11.2c2.4-6.7,11.5-7.8,14.8-1.7c2.6,4.8-0.1,11.3-5.1,12.8
			C1682.8,618.8,1681.4,618.8,1680.1,618.5z"/>
	</g>
	<g>
		<line class="st19" x1="1581.9" y1="581.4" x2="1559.7" y2="575.5"/>
		<path class="st9" d="M1553.9,564.5c4.6,1.3,7.4,6.8,5.6,11.6c-2.5,7-12,8.1-15.4,1.8c-2.7-4.9,0.1-11.7,5.3-13.3
			C1551,564.1,1552.5,564.2,1553.9,564.5z"/>
	</g>
	<g>
		<line class="st18" x1="1627.3" y1="628.1" x2="1633.9" y2="649.1"/>
		<path class="st9" d="M1628.1,659.5c-1.3-4.4,1.7-9.5,6.5-10.6c6.9-1.6,12.7,5.5,9.4,11.6c-2.6,4.8-9.5,6-13.6,2.6
			C1629.3,662.1,1628.5,660.8,1628.1,659.5z"/>
	</g>
	<g>
		<line class="st19" x1="1606.6" y1="556.8" x2="1599.8" y2="534.9"/>
		<path class="st9" d="M1605.8,524.1c1.4,4.6-1.7,9.9-6.8,11c-7.2,1.7-13.2-5.8-9.8-12c2.7-5,9.9-6.2,14.1-2.7
			C1604.6,521.5,1605.4,522.7,1605.8,524.1z"/>
	</g>
	<path class="st9" d="M1632.4,541.5c-3-1-6-1.7-9.1-2.2c-15.3-2.6-29.6,2.7-40.9,13.2c-25,22.9-22.4,65.8,7.8,85.6
		c13.3,8.7,31.9,6.1,46.1-0.3c13-5.9,24.4-16.8,30.9-29.5c6.4-12.8,5.2-27.6-1.7-40.2C1658.6,555.2,1646.2,546,1632.4,541.5z"/>
	<path class="st20" d="M1583.9,556c0.3-0.3,0.6-0.6,0.9-0.9c11.2-10.3,24.3-14.5,37.9-12.3c2.9,0.5,5.8,1.2,8.6,2.1
		c13.6,4.4,24.9,13.4,31,24.7c6.6,12.2,7.2,25.7,1.6,36.8c-2.9,5.8-7.1,11.4-12,16.1c-5.1,4.9-11,9-17.1,11.7
		c-12.5,5.6-30.2,8.7-42.7,0.6c-13-8.5-21.4-22.4-22.9-38.1C1567.8,581.3,1573.2,566.4,1583.9,556 M1581.4,553.4
		c-23.9,23.1-21,65.2,8.8,84.6c13.3,8.7,31.9,6.1,46.1-0.3c6.6-3,12.8-7.3,18.2-12.4c5.2-5,9.5-10.8,12.7-17.1
		c6.4-12.8,5.2-27.6-1.7-40.2c-6.9-12.7-19.4-21.9-33.1-26.4c-3-1-6-1.7-9.1-2.2c-15.3-2.6-29.6,2.7-40.9,13.2
		C1582.1,552.8,1581.8,553.1,1581.4,553.4L1581.4,553.4z"/>
	<path class="st20" d="M1599.7,555.6c-0.5-0.2-1-0.3-1.5-0.4c-2.6-0.4-5,0.5-6.9,2.2c-4.2,3.9-3.8,11.1,1.3,14.4
		c2.2,1.5,5.4,1,7.8-0.1c2.2-1,4.1-2.8,5.2-5c1.1-2.2,0.9-4.6-0.3-6.8C1604.1,557.9,1602,556.4,1599.7,555.6z"/>
	<path class="st20" d="M1621.6,616.7c-0.5-0.2-1-0.3-1.5-0.4c-2.6-0.4-5,0.5-6.9,2.2c-4.2,3.9-3.8,11.1,1.3,14.4
		c2.2,1.5,5.4,1,7.8-0.1c2.2-1,4.1-2.8,5.2-5c1.1-2.2,0.9-4.6-0.3-6.8C1626,619,1623.9,617.4,1621.6,616.7z"/>
	<path class="st20" d="M1652.3,584.9c-0.3-0.1-0.7-0.2-1-0.3c-1.7-0.3-3.3,0.3-4.6,1.5c-2.8,2.6-2.5,7.4,0.9,9.6
		c1.5,1,3.6,0.7,5.2,0c1.5-0.7,2.7-1.9,3.5-3.3c0.7-1.4,0.6-3.1-0.2-4.5C1655.2,586.4,1653.9,585.4,1652.3,584.9z"/>
	<path class="st20" d="M1583.9,599.4c-0.3-0.1-0.7-0.2-1-0.3c-1.7-0.3-3.3,0.3-4.6,1.5c-2.8,2.6-2.5,7.4,0.9,9.6
		c1.5,1,3.6,0.7,5.2,0c1.5-0.7,2.7-1.9,3.5-3.3c0.7-1.4,0.6-3.1-0.2-4.5C1586.8,601,1585.4,599.9,1583.9,599.4z"/>
	<path class="st20" d="M1610.7,579.3c-0.3-0.1-0.7-0.2-1-0.3c-1.7-0.3-3.3,0.3-4.6,1.5c-2.8,2.6-2.5,7.4,0.9,9.6
		c1.5,1,3.6,0.7,5.2,0c1.5-0.7,2.7-1.9,3.5-3.3c0.7-1.4,0.6-3.1-0.2-4.5C1613.6,580.8,1612.2,579.8,1610.7,579.3z"/>
	<path class="st20" d="M1630.4,550.7c-0.7-0.2-1.3-0.4-2-0.5c-3.4-0.6-6.6,0.6-9.1,2.9c-5.6,5.1-5,14.7,1.7,19
		c3,1.9,7.1,1.4,10.3-0.1c2.9-1.3,5.4-3.7,6.9-6.6c1.4-2.9,1.2-6.1-0.4-8.9C1636.3,553.7,1633.5,551.7,1630.4,550.7z"/>
</g>
<g>
	<g>
		<line class="st16" x1="743.1" y1="632.6" x2="720.6" y2="609.3"/>
		<path class="st9" d="M721.4,591.8c4.7,4.9,4,13.5-1.6,18.2c-8.1,6.6-20.3,1.1-19.9-9c0.3-8,8.5-14.1,16.1-12.3
			C718.2,589.3,720,590.4,721.4,591.8z"/>
	</g>
	<g>
		<line class="st16" x1="795.5" y1="686.6" x2="818" y2="709.9"/>
		<path class="st9" d="M817.2,727.3c-4.7-4.9-4-13.5,1.6-18.2c8.1-6.6,20.3-1.1,19.9,9c-0.3,8-8.5,14.1-16.1,12.3
			C820.4,729.9,818.5,728.8,817.2,727.3z"/>
	</g>
	<g>
		<line class="st16" x1="796.3" y1="633.4" x2="819.6" y2="610.9"/>
		<path class="st9" d="M837,611.7c-4.9,4.7-13.5,4-18.2-1.6c-6.6-8.1-1.1-20.3,9-19.9c8,0.3,14.1,8.5,12.3,16.1
			C839.6,608.5,838.5,610.3,837,611.7z"/>
	</g>
	<g>
		<line class="st16" x1="742.3" y1="685.8" x2="719" y2="708.3"/>
		<path class="st9" d="M701.6,707.5c4.9-4.7,13.5-4,18.2,1.6c6.6,8.1,1.1,20.3-9,19.9c-8-0.3-14.1-8.5-12.3-16.1
			C699,710.6,700.1,708.8,701.6,707.5z"/>
	</g>
	<g>
		<line class="st17" x1="777.4" y1="624.3" x2="783.6" y2="597.5"/>
		<path class="st9" d="M796.5,590c-1.4,5.6-7.8,9.2-13.7,7.3c-8.5-2.7-10.2-14-2.8-18.4c5.8-3.5,14.1-0.4,16.2,5.8
			C796.8,586.5,796.9,588.3,796.5,590z"/>
	</g>
	<g>
		<line class="st17" x1="761.1" y1="695.1" x2="754.9" y2="722"/>
		<path class="st9" d="M742,729.5c1.4-5.6,7.8-9.2,13.7-7.3c8.5,2.7,10.2,14,2.8,18.4c-5.8,3.5-14.1,0.4-16.2-5.8
			C741.6,733,741.6,731.2,742,729.5z"/>
	</g>
	<g>
		<line class="st17" x1="804.6" y1="651.5" x2="831.5" y2="645.2"/>
		<path class="st9" d="M843.9,653.4c-5.7,1.3-11.6-3-12.6-9.1c-1.3-8.8,8.1-15.3,15.3-10.6c5.7,3.7,6.6,12.4,1.9,17.2
			C847.1,652.2,845.5,653.1,843.9,653.4z"/>
	</g>
	<g>
		<line class="st17" x1="733.9" y1="668" x2="707" y2="674.2"/>
		<path class="st9" d="M694.6,666c5.7-1.3,11.6,3,12.6,9.1c1.3,8.8-8.1,15.3-15.3,10.6c-5.7-3.7-6.6-12.4-1.9-17.2
			C691.3,667.2,692.9,666.4,694.6,666z"/>
	</g>
	<g>
		<line class="st18" x1="806.9" y1="671.5" x2="828.2" y2="677.2"/>
		<path class="st9" d="M833.9,687.7c-4.5-1.3-7.1-6.5-5.4-11.2c2.4-6.7,11.5-7.8,14.8-1.7c2.6,4.8-0.1,11.3-5.1,12.8
			C836.7,688.1,835.2,688.1,833.9,687.7z"/>
	</g>
	<g>
		<line class="st19" x1="735.7" y1="650.7" x2="713.6" y2="644.7"/>
		<path class="st9" d="M707.7,633.8c4.6,1.3,7.4,6.8,5.6,11.6c-2.5,7-12,8.1-15.4,1.8c-2.7-4.9,0.1-11.7,5.3-13.3
			C704.8,633.4,706.3,633.4,707.7,633.8z"/>
	</g>
	<g>
		<line class="st18" x1="781.2" y1="697.3" x2="787.8" y2="718.4"/>
		<path class="st9" d="M781.9,728.8c-1.3-4.4,1.7-9.5,6.5-10.6c6.9-1.6,12.7,5.5,9.4,11.6c-2.6,4.8-9.5,6-13.6,2.6
			C783.1,731.3,782.3,730.1,781.9,728.8z"/>
	</g>
	<g>
		<line class="st19" x1="760.5" y1="626.1" x2="753.6" y2="604.2"/>
		<path class="st9" d="M759.6,593.4c1.4,4.6-1.7,9.9-6.8,11c-7.2,1.7-13.2-5.8-9.8-12c2.7-5,9.9-6.2,14.1-2.7
			C758.4,590.7,759.2,592,759.6,593.4z"/>
	</g>
	<path class="st9" d="M786.3,610.8c-3-1-6-1.7-9.1-2.2c-15.3-2.6-29.6,2.7-40.9,13.2c-25,22.9-22.4,65.8,7.8,85.6
		c13.3,8.7,31.9,6.1,46.1-0.3c13-5.9,24.4-16.8,30.9-29.5c6.4-12.8,5.2-27.6-1.7-40.2C812.4,624.5,800,615.3,786.3,610.8z"/>
	<path class="st20" d="M737.8,625.3c0.3-0.3,0.6-0.6,0.9-0.9c11.2-10.3,24.3-14.5,37.9-12.3c2.9,0.5,5.8,1.2,8.6,2.1
		c13.6,4.4,24.9,13.4,31,24.7c6.6,12.2,7.2,25.7,1.6,36.8c-2.9,5.8-7.1,11.4-12,16.1c-5.1,4.9-11,9-17.1,11.7
		c-12.5,5.6-30.2,8.7-42.7,0.6c-13-8.5-21.4-22.4-22.9-38.1C721.7,650.6,727,635.7,737.8,625.3 M735.3,622.7
		c-23.9,23.1-21,65.2,8.8,84.6c13.3,8.7,31.9,6.1,46.1-0.3c6.6-3,12.8-7.3,18.2-12.4c5.2-5,9.5-10.8,12.7-17.1
		c6.4-12.8,5.2-27.6-1.7-40.2c-6.9-12.7-19.4-21.9-33.1-26.4c-3-1-6-1.7-9.1-2.2c-15.4-2.6-29.6,2.7-40.9,13.2
		C735.9,622.1,735.6,622.4,735.3,622.7L735.3,622.7z"/>
	<path class="st20" d="M753.5,624.9c-0.5-0.2-1-0.3-1.5-0.4c-2.6-0.4-5,0.5-6.9,2.2c-4.2,3.9-3.8,11.1,1.3,14.4
		c2.2,1.5,5.4,1,7.8-0.1c2.2-1,4.1-2.8,5.2-5c1.1-2.2,0.9-4.6-0.3-6.8C757.9,627.2,755.8,625.6,753.5,624.9z"/>
	<path class="st20" d="M775.5,685.9c-0.5-0.2-1-0.3-1.5-0.4c-2.6-0.4-5,0.5-6.9,2.2c-4.2,3.9-3.8,11.1,1.3,14.4
		c2.2,1.5,5.4,1,7.8-0.1c2.2-1,4.1-2.8,5.2-5c1.1-2.2,0.9-4.6-0.3-6.8C779.9,688.2,777.8,686.7,775.5,685.9z"/>
	<path class="st20" d="M806.1,654.2c-0.3-0.1-0.7-0.2-1-0.3c-1.7-0.3-3.3,0.3-4.6,1.5c-2.8,2.6-2.5,7.4,0.9,9.6c1.5,1,3.6,0.7,5.2,0
		c1.5-0.7,2.7-1.9,3.5-3.3c0.7-1.4,0.6-3.1-0.2-4.5C809.1,655.7,807.7,654.7,806.1,654.2z"/>
	<path class="st20" d="M737.7,668.7c-0.3-0.1-0.7-0.2-1-0.3c-1.7-0.3-3.3,0.3-4.6,1.5c-2.8,2.6-2.5,7.4,0.9,9.6c1.5,1,3.6,0.7,5.2,0
		c1.5-0.7,2.7-1.9,3.5-3.3c0.7-1.4,0.6-3.1-0.2-4.5C740.7,670.2,739.3,669.2,737.7,668.7z"/>
	<path class="st20" d="M764.5,648.6c-0.3-0.1-0.7-0.2-1-0.3c-1.7-0.3-3.3,0.3-4.6,1.5c-2.8,2.6-2.5,7.4,0.9,9.6c1.5,1,3.6,0.7,5.2,0
		c1.5-0.7,2.7-1.9,3.5-3.3c0.7-1.4,0.6-3.1-0.2-4.5C767.4,650.1,766,649.1,764.5,648.6z"/>
	<path class="st20" d="M784.3,620c-0.7-0.2-1.3-0.4-2-0.5c-3.4-0.6-6.6,0.6-9.1,2.9c-5.6,5.1-5,14.7,1.7,19c3,1.9,7.1,1.4,10.3-0.1
		c2.9-1.3,5.4-3.7,6.9-6.6c1.4-2.9,1.2-6.1-0.4-8.9C790.1,623,787.3,621,784.3,620z"/>
</g>
<g>
	<g>
		<path class="st3" d="M973.5,402.1c6.8-22.3,27.8-37.4,48.8-47.4c14.4-6.8,29.7-12.1,45.5-13.6c14-1.3,28.1,0.2,42-1.5
			c13.3-1.6,26-6.2,38.9-9.6c17.4-4.6,35.3-7.5,53.3-7.5h19.4l9.5,3c11.6,3.7,25.8,24.9,33,34.3c10.1,13.1,18.9,27.3,26,42.2
			c14.3,30.1,18.9,61.1,23.6,93.5c5.7,39.5,5.5,80.5,9.9,120.4c4.5,41.2,10.4,82.3,17.8,123.1c0.6,3.3,1.2,6.5,1.8,9.8
			c0.9,4.9,1.7,10.5-1.5,14.3c-1.6,1.9-3.9,3-6.2,3.8c-14.2,5.3-25.1,0.2-38.8-0.9c-18-1.5-37.1,0.6-55.1,0.9
			c-35.9,0.6-71.8,1.1-107.7,1.7c-20.4,0.3-40.9,0.6-61.2-1.1c-31.4-2.7-62.6-10.3-94-7.4C939.9,645,938.2,518.1,973.5,402.1z"/>
	</g>
	<g>
		<path class="st5" d="M1112.8,718.9c13.8-20,13.9-101.6,8.8-105.5l80.2-4.5c3,45.1-16.3,127.7,95.2,126.7c2,0,3.6,1.7,4.9,3.1
			c3.4,3.8,1.8,9.6-0.1,14.3c-15.3,36.8-61.7,95.6-98.9,109.9c-37.2,14.3-70.1,8.2-105.9-9.4c-23.1-11.3-37.3-53-55.3-71.2
			c-12.2-12.3-24.6-27-24.7-44.3C1041.2,734.4,1099,738.9,1112.8,718.9z"/>
	</g>
	<g>
		<g>
			<path class="st6" d="M1121.6,613.3l74.4-4.2c-0.2,10.4-0.6,20.7-1.1,31.1c0,0.5,0,0.9,0.1,1.4c-0.2,0.3-0.5,0.6-0.7,0.9
				c-7,10.8-20.3,19.1-32.7,24.2c-12.4,5.2-25.6,8.6-38.7,11.6C1125.9,649.1,1124.8,615.8,1121.6,613.3z"/>
		</g>
	</g>
	<g>
		<g>
			<path class="st8" d="M812.9,1227.8c7.8-72.8,20.4-144.8,39.4-215.7c16.3-60.5,35.3-126.1,66-181c24.2-43.2,97.8-58.5,139.4-81.7
				c1.6-0.9,3.3,3,4.5,1.9c11.1-1.1,23.7-2.9,28.2,2.5c9.5,11.4,51,58.4,67,69.1c1.7,1.1,3.4,2.3,5.4,2.6
				c4.8,0.8,51.5-40.6,65.6-55.4c5.6-5.8,11.9-13.2,16-20.4c3.1-5.4,20.2,1.5,26.3,1.5c23,0.1,38.8-0.4,59.8,10.2
				c46.1,23.3,101.9,63.8,122.3,111.6c63.5,148,63.3,274.8,61,413.7c-0.2,14.2-12.8,307-18,308.6c-186.5,59.6-491.1,53.5-705.6-28.3
				c1,0,16.7-272.5,18.6-295.3C810,1257.1,811.4,1242.4,812.9,1227.8z"/>
		</g>
	</g>
	<g>
		<path class="st7" d="M812.9,1199.7c7.8-71.9,20.4-143.2,39.4-213.2c16.3-59.8,35.3-124.7,66-178.9c24.2-42.7,97.8-57.8,139.4-80.7
			c1.6-0.9,3.3,3,4.5,1.9c11.1-1.1,23.7-2.9,28.2,2.5c9.5,11.3,51,57.7,67,68.3c1.7,1.1,3.4,2.2,5.4,2.5
			c4.8,0.8,51.5-40.1,65.6-54.7c5.6-5.8,11.9-13,16-20.2c3.1-5.4,20.2,1.5,26.3,1.5c23,0.1,38.8-0.4,59.8,10
			c46.1,23,101.9,63.1,122.3,110.3c63.5,146.3,63.3,271.7,61,409c-0.2,14-12.8,303.5-18,305.1c-186.5,58.9-491.1,52.8-705.6-28
			c1,0,16.7-269.3,18.6-291.9C810,1228.6,811.4,1214.1,812.9,1199.7z"/>
	</g>
	<g>
		<path class="st9" d="M1218.2,1489.3c0.1,19.4,0.3,38.9,0.4,58.3c0,39.7-0.2,79.5-0.5,119.4h302.5c-4.7-56.3-3-107.1-1.5-168.5
			c1.9-79.1,10.7-183.1,5.5-261.9c-2.2-34-4.5-68.1-6.7-102.1c-2.2-33.5-2.5-68.8-6.7-102.1c-8.3-64.8-14.1-122.9-31.9-181.5
			c-15-49.4-51.6-86.5-98.4-108.5c-33.7-15.8-79.6-21.6-114.5-18.8c-8,0.6-10.4,22.8-14,38.9c-4.2,18.4-8.6,43.3-14.2,61.4
			c-9.1,29.4-22.3,53-23.4,84c-2.5,67.8,3.3,133.6,6.1,202.1C1226.2,1244,1217.3,1355.4,1218.2,1489.3z"/>
	</g>
	<g>
		<path class="st9" d="M932.9,1667c6.6-29.6,13.1-59.2,19.3-88.8c21.5-102.9,40.6-206.3,59.4-309.7c18.3-100.9,16.1-206,31.1-308
			c11.7-79.7,37.1-155.7,43.8-235.5c-61.3-9-147.6,28.8-180.8,80.2c-23.4,36.3-35.3,78.6-48.1,119.4
			c-19.2,61.6-32.8,124.8-43.1,188.5c-20.2,124.6-28.2,250.8-44,376c-7.7,61.2-11.9,120.2-16.2,178H932.9z"/>
	</g>
	<g>
		<path class="st4" d="M987.1,1350.2c-2.2,0-4-1.6-4.2-3.8c-12.2-117.3-39.6-278.2-51.6-338.2c-0.3-1.6,0.3-3.2,1.5-4.2
			c6.2-4.9,20.5-14.3,35.7-24.3c15.2-10,32-21.1,41.6-28.2c-6.8-2.9-17.4-7.3-28.3-11.8c-18.7-7.7-40-16.5-48.2-20.5
			c-2.1-1-3-3.5-2-5.6c32.3-68.8,94.7-137.4,141.3-182.8c1.7-1.6,4.4-1.6,6,0.1c1.6,1.7,1.6,4.4-0.1,6
			c-45.2,44.1-105.4,110.1-137.7,176.5c9.7,4.4,27.7,11.8,43.9,18.5c16.1,6.6,30,12.4,35,14.8c1.3,0.6,2.2,1.8,2.4,3.2
			c0.2,1.4-0.3,2.8-1.4,3.8c-7.6,6.7-28.1,20.2-47.8,33.2c-13.5,8.9-26.3,17.3-33,22.3c12.3,62.1,39.2,220.5,51.2,336.4
			c0.2,2.3-1.5,4.4-3.8,4.7C987.3,1350.2,987.2,1350.2,987.1,1350.2z"/>
	</g>
	<g>
		<path class="st4" d="M1218.3,1325c-0.2,0-0.4,0-0.7-0.1c-2.3-0.4-3.9-2.5-3.6-4.9c12-76.9,79.3-257.3,106.6-311.9
			c-7.7-6.8-31-20.4-50.1-31.5c-15.7-9.2-29.3-17.1-35-21.5c-1-0.8-1.7-2.1-1.6-3.4c0-1.3,0.6-2.6,1.7-3.4c3.5-2.6,16.4-7.6,39-16.2
			c17.3-6.6,38.3-14.5,46.2-18.7c-7-21.9-13.3-43.3-19.5-64c-12.9-43.5-25.1-84.5-40.2-120.1c-0.9-2.2,0.1-4.7,2.2-5.6
			c2.2-0.9,4.7,0.1,5.6,2.3c15.3,36,27.6,77.3,40.6,121c6.4,21.7,13.1,44.1,20.5,67c0.6,1.7,0,3.6-1.5,4.7
			c-5.2,4-23.5,11.1-50.8,21.5c-10.9,4.1-23.7,9-31.1,12.2c6.8,4.4,17.3,10.5,28.3,16.9c28.5,16.6,49,28.8,54.3,35.4
			c1.1,1.3,1.2,3.1,0.5,4.6c-26.3,50.9-95.5,237.3-107.2,312.1C1222.2,1323.5,1220.4,1325,1218.3,1325z"/>
	</g>
	<g>
		<path class="st5" d="M1289.5,464.3c4.3-2.4,9.8,0,12.7,4.4c2.9,4.4,3.7,10.2,3.6,15.8c-0.1,11.5-3.6,23-9.7,32.2
			c-3,4.6-6.8,8.7-11.6,10.5c-0.3,0.1-0.7,0.2-0.9,0c-0.2-0.2-0.2-0.5-0.2-0.8c0.3-13.7,0.6-27.3,0.9-41L1289.5,464.3z"/>
	</g>
	<g>
		<path class="st5" d="M970.9,471.9c-3.1,102.2,41,189.9,154.6,189.9c116.1,0,162.7-78.1,165.7-180.3
			c3.1-102.2-66.2-187.2-154.6-189.9C1048.1,289,973.9,369.7,970.9,471.9z"/>
	</g>
	<g>
		<path class="st3" d="M1179.2,456.8c20.4,9.4,40.4,20,58.1,32.9c24.9,18.2,29.5,54.6,39.3,81.9c4-8.4,7.8-16.9,12-25.1
			c3.1-6.1,4.8-13.7,8.4-19.4c5.1-8.1,8.7-17.2,10.5-26.7c4.8-26.4-0.7-54.1-9.4-78.8c-13.8-39.5-38.5-84.6-73.5-109.5
			c-45.2-32.2-103.5-34.5-154.4-16.3c-6.6,2.3-12.9,5.1-19.1,8.3c-55.9,29.1-90,92.8-79.5,155.7c25.2-21.8,59.9-31.6,82.1-56.4
			c26.5,17.7,60,25.5,89.4,37.7C1154.9,446.1,1167.1,451.2,1179.2,456.8z"/>
	</g>
	<g>
		<g>
			<path class="st10" d="M985.5,1091.8c-0.9,6.9,2.7,13.4,8,14.6c5.3,1.1,10.2-3.6,11.1-10.5c0.9-6.9-2.7-13.4-8-14.6
				S986.4,1084.8,985.5,1091.8z"/>
		</g>
		<g>
			<path class="st10" d="M1047,1091.8c-0.9,6.9,2.7,13.4,8,14.6c5.3,1.1,10.2-3.6,11.1-10.5c0.9-6.9-2.7-13.4-8-14.6
				C1052.8,1080.1,1047.8,1084.8,1047,1091.8z"/>
		</g>
		<g>
			<path class="st10" d="M1311.8,1018.7c-0.1,0-0.2,0-0.3,0c-1.6-0.1-2.7-1.5-2.6-3.1c4.9-52.7,2.4-110.5-7.5-172
				c-4.9-30.1-10.5-53.7-17.6-74.3c-4.8-13.7-11.3-32.5-24-42.5c-9.6-7.6-17.3-8.8-30.1-10.2c-1.6-0.2-2.7-1.6-2.5-3.1
				c0.2-1.6,1.6-2.7,3.1-2.5c12,1.3,21.6,2.4,32.9,11.4c14,11.1,20.8,30.7,25.8,45.1c7.3,20.9,13,44.9,17.9,75.2
				c10,61.9,12.5,120.2,7.5,173.4C1314.4,1017.6,1313.2,1018.7,1311.8,1018.7z"/>
		</g>
		<g>
			<path class="st10" d="M1025.8,920.9c-1.4,0-2.6-1-2.8-2.4c-5.1-30.2-5.8-61.5-2-93.1c4.1-34,11.8-59.1,24.3-79
				c15.8-25.1,36.1-30.8,61.9-31.5c1.7-0.1,2.9,1.2,2.9,2.8c0,1.6-1.2,2.9-2.8,2.9c-24.6,0.7-42.7,5.8-57.2,28.8
				c-12,19.1-19.4,43.5-23.4,76.6c-3.7,31-3,61.8,2,91.5c0.3,1.5-0.8,3-2.3,3.3C1026.2,920.9,1026,920.9,1025.8,920.9z"/>
		</g>
		<g>
			<circle class="st10" cx="1310.1" cy="1048.9" r="35.5"/>
		</g>
		<g>
			<circle class="st11" cx="1310.1" cy="1048.9" r="12.4"/>
		</g>
		<g>
			<path class="st10" d="M1073,1099.3c-3.6,0-6.9-0.9-9-1.5c-1.2-0.3-2-1.6-1.6-2.9c0.3-1.2,1.6-2,2.9-1.6
				c8.4,2.3,12.9,1.6,15.7-2.5c1.6-2.3,2.4-5.8,3-8.8c10.3-51.2,1.4-136.7-41.4-157.5c-10.8-5.2-20.9-5.5-30-0.8
				c-21.2,10.9-34.2,46.9-38.9,74.3c-2.8,16.6-3.2,33.3-3.1,46l0,3.3c0,8.8-0.1,35.7,2.9,40.3c2.5,3.8,6.8,3.6,12.6,3l0.9-0.1
				c1.2-0.1,2.4,0.8,2.6,2.1c0.1,1.3-0.8,2.4-2.1,2.6l-0.9,0.1c-5.4,0.6-12.8,1.4-17-5.1c-3.3-5.1-3.7-23.6-3.6-42.9l0-3.3
				c0-12.9,0.3-29.8,3.2-46.8c5.1-29.9,18.6-66,41.3-77.7c10.5-5.4,22-5.1,34.2,0.8c45.5,22.1,54.8,108.6,44,162.6
				c-0.7,3.5-1.6,7.5-3.7,10.5C1081.7,1098,1077.2,1099.3,1073,1099.3z"/>
		</g>
	</g>
	<g>
		<g>
			<path class="st12" d="M1081.3,549.2c-9,0-15.4-3.7-17.5-10.4c-1.1-3.4-0.9-6.6,0.6-9.5c1.6-3.1,4.7-5.5,8.6-6.6
				c4.5-1.3,9.6-0.9,14.4,1.2c1.1,0.5,1.6,1.8,1.1,2.9c-0.5,1.1-1.8,1.6-2.9,1.1c-3.8-1.7-7.8-2-11.3-1c-2.7,0.8-4.8,2.4-5.9,4.4
				c-0.9,1.8-1.1,3.8-0.3,6c2.3,7.3,11.5,7.5,15.3,7.3c1.2-0.1,2.3,0.9,2.4,2.1c0.1,1.2-0.9,2.3-2.1,2.4
				C1082.8,549.2,1082,549.2,1081.3,549.2z"/>
		</g>
		<g>
			<g>
				<ellipse class="st13" cx="1152.5" cy="520.5" rx="10.9" ry="16.8"/>
			</g>
			<g>
				<ellipse class="st9" cx="1156" cy="511.8" rx="3.5" ry="4.3"/>
			</g>
		</g>
		<g>
			<g>
				<ellipse class="st13" cx="1020.3" cy="520.5" rx="10.9" ry="16.8"/>
			</g>
			<g>
				<ellipse class="st9" cx="1023.8" cy="511.8" rx="3.5" ry="4.3"/>
			</g>
		</g>
		<g>
			<path class="st13" d="M1027.8,482.8c-6.3-1.1-13.2-0.7-19.8,0.2c-6.6,1-13.3,2.7-19.1,5.8l0,0c-0.7,0.4-1.5,0.1-1.9-0.6
				c-0.3-0.6-0.1-1.4,0.5-1.8c6.1-3.9,12.9-6,19.8-7.6c6.9-1.4,14-2.4,21.4-1.7c1.6,0.1,2.7,1.5,2.6,3.1c-0.1,1.6-1.5,2.7-3.1,2.6
				C1028,482.8,1027.9,482.8,1027.8,482.8L1027.8,482.8z"/>
		</g>
		<g>
			<path class="st13" d="M1144.4,476.7c7.4-0.5,14.4,0.6,21.3,2.3c6.8,1.8,13.6,4.1,19.6,8.2c0.6,0.4,0.8,1.3,0.4,1.9
				c-0.4,0.6-1.2,0.8-1.8,0.4l0,0c-5.7-3.3-12.4-5.2-19-6.4c-6.6-1.1-13.5-1.7-19.8-0.8l-0.1,0c-1.6,0.2-3-0.9-3.2-2.4
				c-0.2-1.6,0.9-3,2.4-3.2C1144.2,476.7,1144.3,476.7,1144.4,476.7z"/>
		</g>
		<g>
			<path class="st9" d="M1048.1,577.8c-1.7-0.8-4-0.9-5.3,0.4c-1.3,1.4-0.7,3.6,0.1,5.3c5.8,11.1,14.2,19.2,26.4,20.6
				c12.1,1.4,27-5.1,35.4-13.4c2.1-2,6.5-7.6,4.3-10.2c-2.8-3.4-10.1,0.7-12.3,1.5C1080.8,588.2,1063.5,585.5,1048.1,577.8z"/>
		</g>
	</g>
	<g>
		<path class="st5" d="M990.6,1241.9c16.8,0.5,34.9,2.8,47.3,13.4c12.4,10.6,14.7,31.9,0.4,39.9c14.6,13,11.3,38.5-6.2,47.3
			c14.6,16.9,6.8,45.4-14.6,53.5c10.5,3.2,15.4,15.6,11.5,25c-3.8,9.3-14.3,15.3-25.1,17c-10.8,1.7-21.9-0.2-32.6-2.6
			c-14.8-3.4-29.3-7.9-43.4-13.4c-9.9-3.9-21.8-5.7-29.3-13.4c-9.1-9.3-4.5-20.2-2.4-31.2c4.8-25.3,12.4-49.6,21-73.9
			c6.2-17.6,6.3-41,21.8-54.3C951.4,1238.7,975.1,1241.5,990.6,1241.9z"/>
	</g>
	<g>
		<g>
			<path class="st6" d="M1014.8,1404.8c-1.6-7.1-2.2-12.9,0.8-19.7c3.2-7,5.7-13.4,5.2-21.3c-0.3-4.5-1.6-8.8-1.9-13.3
				c-0.2-4.3,2.7-6.7,2.9-11c0.3-5.1-1.4-10.7-1.4-15.9c0-4.9,0.4-9.7,1-14.6c1.2-9.7,3.5-19.5,3.9-29.3c0.4-10.7-1.6-20.9,1.8-31.1
				c3.9,1.7,7.5,3.9,10.8,6.7c12.4,10.6,14.7,31.9,0.4,39.9c14.6,13,11.3,38.5-6.2,47.3c14.6,16.9,6.8,45.4-14.6,53.5
				c10.5,3.2,15.4,15.6,11.5,25c-2.1,5.1-6.2,9.2-11.3,12.2C1019.2,1424.1,1016.9,1414.5,1014.8,1404.8z"/>
		</g>
	</g>
	<g>
		<path class="st5" d="M1094.4,1242.6c-16.8-1.4-35-1.1-48.5,8c-13.5,9.1-18.2,30.1-4.9,39.6c-16,11.3-15.5,36.9,0.9,47.7
			c-16.4,15.2-11.9,44.3,8.5,54.8c-10.8,2-17,13.8-14.3,23.5c2.8,9.7,12.5,16.8,23,19.8c10.5,2.9,21.8,2.3,32.7,1.1
			c15.1-1.7,30-4.5,44.6-8.5c10.3-2.8,22.3-3.2,30.6-10c10-8.2,6.8-19.5,5.9-30.7c-1.9-25.7-6.7-50.7-12.6-75.8
			c-4.2-18.2-1.6-41.4-15.6-56.4C1133.6,1243.8,1109.8,1243.9,1094.4,1242.6z"/>
	</g>
	<g>
		<path class="st9" d="M1390.7,750.7c87,41.9,140.4,170.9,170.3,270.8c17.8,59.2,28.9,120.3,35.6,181.7c3.4,31.2,5.7,62.5,7.1,93.8
			c1,20.9,1.9,44.6-6.6,64.2c-7.4,17.1-21.7,24.4-39.5,26.2c-133.5,13.8-267,27.6-400.5,41.5c-17.1-46.5-27.2-140.5-21.4-181.9
			c0.4-3,250.4-31.7,273.2-44.5c2.9-1.7,5.9-3.6,7.6-6.5c2.6-4.4,1.3-9.9,0.4-15c-13-78-32.5-154-52.9-223.6"/>
	</g>
	<g>
		<path class="st9" d="M956.8,1233.8c-21.3-6.9-126-27.2-146.2-44c-9.1-7.6,9.8-98.5,14.1-118.2c8.5-38.8,17.5-86.4,28-124.7
			c8-29.2,13.5-54.1,24.9-82c11.1-27.1,32.5-58.7,51.6-86.6C854,833.6,804.3,909.9,760,988.2c-41.5,73.5-90.4,174.1-81.2,262
			c3.4,32.6,15.7,64.6,37,89.6c22.3,26.2,53.3,43.7,85.8,54.9c15.8,5.5,71.8,21.9,91.7,25.6c15.3,2.8,39.7-70.8,42.1-80.2
			C945.7,1301.1,956.8,1233.8,956.8,1233.8z"/>
	</g>
	<g>
		<path class="st4" d="M943.6,1236.6c-0.4,0-0.8,0-1.1-0.2c-39.3-10.7-78.9-22.4-117.8-34.6l-1.6-0.5c-5.4-1.6-12.8-3.9-16.1-9.3
			c-3.8-6.2-2.8-22.5-2.8-22.7c2-26.8,7-49.5,12.4-73.5c1.3-6,2.7-12.2,4.1-18.6c0.5-2.3,2.8-3.8,5-3.3c2.3,0.5,3.8,2.8,3.3,5
			c-1.4,6.4-2.7,12.6-4.1,18.6c-5.5,24.7-10.3,46.1-12.2,72.2c-0.4,6.1,0.2,15.4,1.5,17.6c1.6,2.7,7.2,4.4,11.3,5.6l1.7,0.5
			c38.7,12.2,78.2,23.8,117.5,34.5c2.3,0.6,3.6,3,3,5.2C947.2,1235.3,945.5,1236.6,943.6,1236.6z"/>
	</g>
	<g>
		<path class="st4" d="M894.2,1427.8c-2.3,0-4.4-0.6-5.9-1c-31.8-9.1-63.6-19.4-94.7-30.7c-2.2-0.8-3.3-3.2-2.5-5.5
			c0.8-2.2,3.2-3.3,5.5-2.5c30.9,11.2,62.5,21.5,94.1,30.5c1.4,0.4,3.4,1,4.5,0.6c0.9-0.3,1.9-1.5,2.8-2.5c6.7-8,12.2-17,16.2-26.7
			c0.9-2.2,3.4-3.2,5.6-2.3c2.2,0.9,3.2,3.4,2.3,5.6c-4.4,10.5-10.3,20.2-17.5,28.9c-1.6,2-3.6,4.1-6.6,5.1
			C896.6,1427.6,895.4,1427.8,894.2,1427.8z"/>
	</g>
	<g>
		<path class="st4" d="M1222.9,1426.5c-2.2,0-4-1.7-4.2-3.9c-0.2-2.3,1.5-4.4,3.8-4.6c90.6-8.3,182.4-17.7,272.8-27.9
			c2.4-0.3,4.4,1.4,4.7,3.8c0.3,2.3-1.4,4.4-3.8,4.7c-90.5,10.1-182.3,19.5-273,27.9C1223.1,1426.5,1223,1426.5,1222.9,1426.5z"/>
	</g>
	<g>
		<path class="st4" d="M1283.6,1230.2c-2.1,0-4-1.6-4.2-3.8c-0.3-2.3,1.4-4.4,3.7-4.7c37.9-4.4,75.8-11.1,112.9-20
			c3.3-0.8,7.1-1.7,10-3.5c9.6-6.1,9.5-21.1,7.8-32.6c-3-19.6-8.2-39-13.3-57.8l-39.9-147.1c-0.6-2.3,0.7-4.6,3-5.2
			c2.2-0.6,4.6,0.7,5.2,3l39.9,147.1c5.2,19,10.5,38.7,13.5,58.8c3,20.1-1,34.3-11.6,41.1c-4.1,2.6-8.8,3.7-12.6,4.6
			c-37.4,9-75.7,15.7-113.9,20.2C1283.9,1230.2,1283.8,1230.2,1283.6,1230.2z"/>
	</g>
</g>
</svg>
